<svg xmlns="http://www.w3.org/2000/svg" viewBox="0 0 180 180" fill="none">
  <!-- Background with rounded corners for iOS -->
  <defs>
    <linearGradient id="grad1" x1="0%" y1="0%" x2="100%" y2="100%">
      <stop offset="0%" style="stop-color:#ff6b35;stop-opacity:1" />
      <stop offset="100%" style="stop-color:#f7931e;stop-opacity:1" />
    </linearGradient>
  </defs>
  
  <!-- Rounded rectangle background -->
  <rect x="0" y="0" width="180" height="180" rx="40" ry="40" fill="url(#grad1)"/>
  
  <!-- Dharma wheel -->
  <circle cx="90" cy="90" r="65" fill="none" stroke="#fff" stroke-width="6"/>
  
  <!-- Inner hub -->
  <circle cx="90" cy="90" r="12" fill="#fff"/>
  
  <!-- Eight spokes -->
  <line x1="90" y1="25" x2="90" y2="50" stroke="#fff" stroke-width="6"/>
  <line x1="90" y1="130" x2="90" y2="155" stroke="#fff" stroke-width="6"/>
  <line x1="25" y1="90" x2="50" y2="90" stroke="#fff" stroke-width="6"/>
  <line x1="130" y1="90" x2="155" y2="90" stroke="#fff" stroke-width="6"/>
  <line x1="43.93" y1="43.93" x2="60.18" y2="60.18" stroke="#fff" stroke-width="6"/>
  <line x1="119.82" y1="119.82" x2="136.07" y2="136.07" stroke="#fff" stroke-width="6"/>
  <line x1="43.93" y1="136.07" x2="60.18" y2="119.82" stroke="#fff" stroke-width="6"/>
  <line x1="119.82" y1="60.18" x2="136.07" y2="43.93" stroke="#fff" stroke-width="6"/>
  
  <!-- Chain links -->
  <circle cx="65" cy="45" r="8" fill="none" stroke="#fff" stroke-width="3"/>
  <circle cx="115" cy="45" r="8" fill="none" stroke="#fff" stroke-width="3"/>
  <circle cx="135" cy="90" r="8" fill="none" stroke="#fff" stroke-width="3"/>
  <circle cx="115" cy="135" r="8" fill="none" stroke="#fff" stroke-width="3"/>
  <circle cx="65" cy="135" r="8" fill="none" stroke="#fff" stroke-width="3"/>
  <circle cx="45" cy="90" r="8" fill="none" stroke="#fff" stroke-width="3"/>
</svg>
