<svg xmlns="http://www.w3.org/2000/svg" viewBox="0 0 32 32" fill="none">
  <!-- Background circle with gradient -->
  <defs>
    <linearGradient id="grad1" x1="0%" y1="0%" x2="100%" y2="100%">
      <stop offset="0%" style="stop-color:#ff6b35;stop-opacity:1" />
      <stop offset="100%" style="stop-color:#f7931e;stop-opacity:1" />
    </linearGradient>
  </defs>
  
  <!-- Outer circle -->
  <circle cx="16" cy="16" r="15" fill="url(#grad1)" stroke="#fff" stroke-width="1"/>
  
  <!-- Dharma wheel -->
  <circle cx="16" cy="16" r="12" fill="none" stroke="#fff" stroke-width="1.5"/>
  
  <!-- Inner hub -->
  <circle cx="16" cy="16" r="2.5" fill="#fff"/>
  
  <!-- Eight spokes -->
  <line x1="16" y1="4" x2="16" y2="9" stroke="#fff" stroke-width="1.5"/>
  <line x1="16" y1="23" x2="16" y2="28" stroke="#fff" stroke-width="1.5"/>
  <line x1="4" y1="16" x2="9" y2="16" stroke="#fff" stroke-width="1.5"/>
  <line x1="23" y1="16" x2="28" y2="16" stroke="#fff" stroke-width="1.5"/>
  <line x1="6.34" y1="6.34" x2="9.76" y2="9.76" stroke="#fff" stroke-width="1.5"/>
  <line x1="22.24" y1="22.24" x2="25.66" y2="25.66" stroke="#fff" stroke-width="1.5"/>
  <line x1="6.34" y1="25.66" x2="9.76" y2="22.24" stroke="#fff" stroke-width="1.5"/>
  <line x1="22.24" y1="9.76" x2="25.66" y2="6.34" stroke="#fff" stroke-width="1.5"/>
  
  <!-- Chain links (simplified for favicon) -->
  <circle cx="11" cy="8" r="1.5" fill="none" stroke="#fff" stroke-width="1"/>
  <circle cx="21" cy="8" r="1.5" fill="none" stroke="#fff" stroke-width="1"/>
  <circle cx="24" cy="16" r="1.5" fill="none" stroke="#fff" stroke-width="1"/>
  <circle cx="21" cy="24" r="1.5" fill="none" stroke="#fff" stroke-width="1"/>
  <circle cx="11" cy="24" r="1.5" fill="none" stroke="#fff" stroke-width="1"/>
  <circle cx="8" cy="16" r="1.5" fill="none" stroke="#fff" stroke-width="1"/>
</svg>
